<svg width="620" height="400" viewBox="0 0 620 400" fill="none" xmlns="http://www.w3.org/2000/svg">
<path d="M3 212H44.0122" stroke="#2AB4D9" stroke-width="4" stroke-linecap="round"/>
<path d="M470.006 167H511.018" stroke="#2AB4D9" stroke-width="4" stroke-linecap="round"/>
<path d="M418.006 172H459.018" stroke="#2AB4D9" stroke-width="4" stroke-linecap="round"/>
<path d="M470.006 172H511.018" stroke="#2AB4D9" stroke-width="4" stroke-linecap="round"/>
<path d="M366.006 177H407.018" stroke="#2AB4D9" stroke-width="4" stroke-linecap="round"/>
<path d="M418.006 177H459.018" stroke="#2AB4D9" stroke-width="4" stroke-linecap="round"/>
<path d="M470.006 177H511.018" stroke="#2AB4D9" stroke-width="4" stroke-linecap="round"/>
<path d="M314.006 182H355.018" stroke="#2AB4D9" stroke-width="4" stroke-linecap="round"/>
<path d="M366.006 182H407.018" stroke="#2AB4D9" stroke-width="4" stroke-linecap="round"/>
<path d="M418.006 182H459.018" stroke="#2AB4D9" stroke-width="4" stroke-linecap="round"/>
<path d="M470.006 182H511.018" stroke="#2AB4D9" stroke-width="4" stroke-linecap="round"/>
<path d="M314.006 182H355.018" stroke="#2AB4D9" stroke-width="4" stroke-linecap="round"/>
<path d="M366.006 182H407.018" stroke="#2AB4D9" stroke-width="4" stroke-linecap="round"/>
<path d="M418.006 182H459.018" stroke="#2AB4D9" stroke-width="4" stroke-linecap="round"/>
<path d="M470.006 182H511.018" stroke="#2AB4D9" stroke-width="4" stroke-linecap="round"/>
<path d="M262.006 187H303.018" stroke="#2AB4D9" stroke-width="4" stroke-linecap="round"/>
<path d="M314.006 187H355.006" stroke="#2AB4D9" stroke-width="4" stroke-linecap="round"/>
<path d="M366.006 187H407.006" stroke="#2AB4D9" stroke-width="4" stroke-linecap="round"/>
<path d="M418.006 187H459.006" stroke="#2AB4D9" stroke-width="4" stroke-linecap="round"/>
<path d="M470.006 187H511.006" stroke="#2AB4D9" stroke-width="4" stroke-linecap="round"/>
<path d="M314.006 187H355.006" stroke="#2AB4D9" stroke-width="4" stroke-linecap="round"/>
<path d="M366.006 187H407.006" stroke="#2AB4D9" stroke-width="4" stroke-linecap="round"/>
<path d="M418.006 187H459.006" stroke="#2AB4D9" stroke-width="4" stroke-linecap="round"/>
<path d="M470.006 187H511.006" stroke="#2AB4D9" stroke-width="4" stroke-linecap="round"/>
<path d="M210.006 192H251.018" stroke="#2AB4D9" stroke-width="4" stroke-linecap="round"/>
<path d="M262.006 192H303.018" stroke="#2AB4D9" stroke-width="4" stroke-linecap="round"/>
<path d="M314.006 192H355.006" stroke="#2AB4D9" stroke-width="4" stroke-linecap="round"/>
<path d="M366.006 192H407.006" stroke="#2AB4D9" stroke-width="4" stroke-linecap="round"/>
<path d="M418.006 192H459.006" stroke="#2AB4D9" stroke-width="4" stroke-linecap="round"/>
<path d="M470.006 192H511.006" stroke="#2AB4D9" stroke-width="4" stroke-linecap="round"/>
<path d="M314.006 192H355.006" stroke="#2AB4D9" stroke-width="4" stroke-linecap="round"/>
<path d="M366.006 192H407.006" stroke="#2AB4D9" stroke-width="4" stroke-linecap="round"/>
<path d="M418.006 192H459.006" stroke="#2AB4D9" stroke-width="4" stroke-linecap="round"/>
<path d="M470.006 192H511.006" stroke="#2AB4D9" stroke-width="4" stroke-linecap="round"/>
<path d="M158.006 197H199.018" stroke="#2AB4D9" stroke-width="4" stroke-linecap="round"/>
<path d="M210.006 197H251.018" stroke="#2AB4D9" stroke-width="4" stroke-linecap="round"/>
<path d="M262.006 197H303.018" stroke="#2AB4D9" stroke-width="4" stroke-linecap="round"/>
<path d="M314.006 197H355.006" stroke="#2AB4D9" stroke-width="4" stroke-linecap="round"/>
<path d="M366.006 197H407.006" stroke="#2AB4D9" stroke-width="4" stroke-linecap="round"/>
<path d="M418.006 197H459.006" stroke="#2AB4D9" stroke-width="4" stroke-linecap="round"/>
<path d="M470.006 197H511.006" stroke="#2AB4D9" stroke-width="4" stroke-linecap="round"/>
<path d="M314.006 197H355.006" stroke="#2AB4D9" stroke-width="4" stroke-linecap="round"/>
<path d="M366.006 197H407.006" stroke="#2AB4D9" stroke-width="4" stroke-linecap="round"/>
<path d="M418.006 197H459.006" stroke="#2AB4D9" stroke-width="4" stroke-linecap="round"/>
<path d="M470.006 197H511.006" stroke="#2AB4D9" stroke-width="4" stroke-linecap="round"/>
<path d="M106.006 202H147.018" stroke="#2AB4D9" stroke-width="4" stroke-linecap="round"/>
<path d="M158.006 202H199.018" stroke="#2AB4D9" stroke-width="4" stroke-linecap="round"/>
<path d="M210.006 202H251.018" stroke="#2AB4D9" stroke-width="4" stroke-linecap="round"/>
<path d="M262.006 202H303.018" stroke="#2AB4D9" stroke-width="4" stroke-linecap="round"/>
<path d="M314.006 202H355.006" stroke="#2AB4D9" stroke-width="4" stroke-linecap="round"/>
<path d="M366.006 202H407.006" stroke="#2AB4D9" stroke-width="4" stroke-linecap="round"/>
<path d="M418.006 202H459.006" stroke="#2AB4D9" stroke-width="4" stroke-linecap="round"/>
<path d="M470.006 202H511.006" stroke="#2AB4D9" stroke-width="4" stroke-linecap="round"/>
<path d="M314.006 202H355.006" stroke="#2AB4D9" stroke-width="4" stroke-linecap="round"/>
<path d="M366.006 202H407.006" stroke="#2AB4D9" stroke-width="4" stroke-linecap="round"/>
<path d="M418.006 202H459.006" stroke="#2AB4D9" stroke-width="4" stroke-linecap="round"/>
<path d="M470.006 202H511.006" stroke="#2AB4D9" stroke-width="4" stroke-linecap="round"/>
<path d="M54.0061 212H95.0183" stroke="#2AB4D9" stroke-width="4" stroke-linecap="round"/>
<path d="M106.006 212H147.018" stroke="#2AB4D9" stroke-width="4" stroke-linecap="round"/>
<path d="M158.006 212H199.018" stroke="#2AB4D9" stroke-width="4" stroke-linecap="round"/>
<path d="M210.006 212H251.018" stroke="#2AB4D9" stroke-width="4" stroke-linecap="round"/>
<path d="M262.006 212H303.018" stroke="#2AB4D9" stroke-width="4" stroke-linecap="round"/>
<path d="M314.006 212H355.006" stroke="#2AB4D9" stroke-width="4" stroke-linecap="round"/>
<path d="M366.006 212H407.006" stroke="#2AB4D9" stroke-width="4" stroke-linecap="round"/>
<path d="M418.006 212H459.006" stroke="#2AB4D9" stroke-width="4" stroke-linecap="round"/>
<path d="M470.006 212H511.006" stroke="#2AB4D9" stroke-width="4" stroke-linecap="round"/>
<path d="M314.006 212H355.006" stroke="#2AB4D9" stroke-width="4" stroke-linecap="round"/>
<path d="M366.006 212H407.006" stroke="#2AB4D9" stroke-width="4" stroke-linecap="round"/>
<path d="M418.006 212H459.006" stroke="#2AB4D9" stroke-width="4" stroke-linecap="round"/>
<path d="M470.006 212H511.006" stroke="#2AB4D9" stroke-width="4" stroke-linecap="round"/>
<path d="M54.0061 207H95.0183" stroke="#2AB4D9" stroke-width="4" stroke-linecap="round"/>
<path d="M106.006 207H147.018" stroke="#2AB4D9" stroke-width="4" stroke-linecap="round"/>
<path d="M158.006 207H199.018" stroke="#2AB4D9" stroke-width="4" stroke-linecap="round"/>
<path d="M210.006 207H251.018" stroke="#2AB4D9" stroke-width="4" stroke-linecap="round"/>
<path d="M262.006 207H303.018" stroke="#2AB4D9" stroke-width="4" stroke-linecap="round"/>
<path d="M314.006 207H355.006" stroke="#2AB4D9" stroke-width="4" stroke-linecap="round"/>
<path d="M366.006 207H407.006" stroke="#2AB4D9" stroke-width="4" stroke-linecap="round"/>
<path d="M418.006 207H459.006" stroke="#2AB4D9" stroke-width="4" stroke-linecap="round"/>
<path d="M470.006 207H511.006" stroke="#2AB4D9" stroke-width="4" stroke-linecap="round"/>
<path d="M314.006 207H355.006" stroke="#2AB4D9" stroke-width="4" stroke-linecap="round"/>
<path d="M366.006 207H407.006" stroke="#2AB4D9" stroke-width="4" stroke-linecap="round"/>
<path d="M418.006 207H459.006" stroke="#2AB4D9" stroke-width="4" stroke-linecap="round"/>
<path d="M470.006 207H511.006" stroke="#2AB4D9" stroke-width="4" stroke-linecap="round"/>
<path d="M4.06292 229V220.273H5.11974V228.062H9.17656V229H4.06292ZM13.4209 229.136C12.7902 229.136 12.2462 228.997 11.7888 228.719C11.3342 228.438 10.9834 228.045 10.7362 227.543C10.4919 227.037 10.3697 226.449 10.3697 225.778C10.3697 225.108 10.4919 224.517 10.7362 224.006C10.9834 223.491 11.3271 223.091 11.7675 222.804C12.2106 222.514 12.7277 222.369 13.3186 222.369C13.6595 222.369 13.9962 222.426 14.3285 222.54C14.6609 222.653 14.9635 222.838 15.2362 223.094C15.5089 223.347 15.7263 223.682 15.8882 224.099C16.0501 224.517 16.1311 225.031 16.1311 225.642V226.068H11.0856V225.199H15.1084C15.1084 224.83 15.0345 224.5 14.8868 224.21C14.7419 223.92 14.5345 223.692 14.2646 223.524C13.9976 223.357 13.6822 223.273 13.3186 223.273C12.918 223.273 12.5714 223.372 12.2788 223.571C11.9891 223.767 11.766 224.023 11.6098 224.338C11.4535 224.653 11.3754 224.991 11.3754 225.352V225.932C11.3754 226.426 11.4606 226.845 11.6311 227.189C11.8044 227.53 12.0445 227.79 12.3513 227.969C12.6581 228.145 13.0146 228.233 13.4209 228.233C13.6851 228.233 13.9237 228.196 14.1368 228.122C14.3527 228.045 14.5388 227.932 14.695 227.781C14.8513 227.628 14.972 227.437 15.0572 227.21L16.0288 227.483C15.9266 227.812 15.7547 228.102 15.5132 228.352C15.2717 228.599 14.9734 228.793 14.6183 228.932C14.2632 229.068 13.8641 229.136 13.4209 229.136ZM22.2973 223.92L21.3939 224.176C21.3371 224.026 21.2533 223.879 21.1425 223.737C21.0345 223.592 20.8868 223.473 20.6993 223.379C20.5118 223.286 20.2717 223.239 19.9791 223.239C19.5785 223.239 19.2447 223.331 18.9777 223.516C18.7135 223.697 18.5814 223.929 18.5814 224.21C18.5814 224.46 18.6723 224.658 18.8541 224.803C19.0359 224.947 19.32 225.068 19.7064 225.165L20.678 225.403C21.2632 225.545 21.6993 225.763 21.9862 226.055C22.2731 226.345 22.4166 226.719 22.4166 227.176C22.4166 227.551 22.3087 227.886 22.0928 228.182C21.8797 228.477 21.5814 228.71 21.1979 228.881C20.8143 229.051 20.3683 229.136 19.8598 229.136C19.1922 229.136 18.6396 228.991 18.2021 228.702C17.7646 228.412 17.4876 227.989 17.3712 227.432L18.3257 227.193C18.4166 227.545 18.5885 227.81 18.8413 227.986C19.097 228.162 19.4308 228.25 19.8428 228.25C20.3115 228.25 20.6837 228.151 20.9592 227.952C21.2376 227.75 21.3768 227.509 21.3768 227.227C21.3768 227 21.2973 226.81 21.1382 226.656C20.9791 226.5 20.7348 226.384 20.4053 226.307L19.3143 226.051C18.7149 225.909 18.2746 225.689 17.9933 225.391C17.7149 225.089 17.5757 224.713 17.5757 224.261C17.5757 223.892 17.6794 223.565 17.8868 223.281C18.097 222.997 18.3825 222.774 18.7433 222.612C19.107 222.45 19.5189 222.369 19.9791 222.369C20.6268 222.369 21.1354 222.511 21.5047 222.795C21.8768 223.08 22.141 223.455 22.2973 223.92ZM28.5668 223.92L27.6634 224.176C27.6066 224.026 27.5228 223.879 27.412 223.737C27.304 223.592 27.1563 223.473 26.9688 223.379C26.7813 223.286 26.5413 223.239 26.2486 223.239C25.8481 223.239 25.5143 223.331 25.2472 223.516C24.983 223.697 24.8509 223.929 24.8509 224.21C24.8509 224.46 24.9418 224.658 25.1236 224.803C25.3055 224.947 25.5896 225.068 25.9759 225.165L26.9475 225.403C27.5327 225.545 27.9688 225.763 28.2557 226.055C28.5427 226.345 28.6861 226.719 28.6861 227.176C28.6861 227.551 28.5782 227.886 28.3623 228.182C28.1492 228.477 27.8509 228.71 27.4674 228.881C27.0839 229.051 26.6379 229.136 26.1293 229.136C25.4617 229.136 24.9092 228.991 24.4717 228.702C24.0342 228.412 23.7572 227.989 23.6407 227.432L24.5952 227.193C24.6861 227.545 24.858 227.81 25.1109 227.986C25.3665 228.162 25.7004 228.25 26.1123 228.25C26.581 228.25 26.9532 228.151 27.2288 227.952C27.5072 227.75 27.6464 227.509 27.6464 227.227C27.6464 227 27.5668 226.81 27.4077 226.656C27.2486 226.5 27.0043 226.384 26.6748 226.307L25.5839 226.051C24.9844 225.909 24.5441 225.689 24.2629 225.391C23.9844 225.089 23.8452 224.713 23.8452 224.261C23.8452 223.892 23.9489 223.565 24.1563 223.281C24.3665 222.997 24.6521 222.774 25.0129 222.612C25.3765 222.45 25.7884 222.369 26.2486 222.369C26.8964 222.369 27.4049 222.511 27.7742 222.795C28.1464 223.08 28.4106 223.455 28.5668 223.92ZM39.4386 220.273H40.4955V226.051C40.4955 226.648 40.3548 227.18 40.0736 227.649C39.7952 228.115 39.4017 228.483 38.8932 228.753C38.3847 229.02 37.7881 229.153 37.1034 229.153C36.4187 229.153 35.8222 229.02 35.3136 228.753C34.8051 228.483 34.4102 228.115 34.129 227.649C33.8506 227.18 33.7114 226.648 33.7114 226.051V220.273H34.7682V225.966C34.7682 226.392 34.8619 226.771 35.0494 227.104C35.2369 227.433 35.504 227.693 35.8506 227.884C36.2 228.071 36.6176 228.165 37.1034 228.165C37.5892 228.165 38.0068 228.071 38.3562 227.884C38.7057 227.693 38.9727 227.433 39.1574 227.104C39.3449 226.771 39.4386 226.392 39.4386 225.966V220.273ZM47.1059 223.92L46.2025 224.176C46.1457 224.026 46.0619 223.879 45.9511 223.737C45.8431 223.592 45.6954 223.473 45.5079 223.379C45.3204 223.286 45.0803 223.239 44.7877 223.239C44.3871 223.239 44.0533 223.331 43.7863 223.516C43.5221 223.697 43.39 223.929 43.39 224.21C43.39 224.46 43.4809 224.658 43.6627 224.803C43.8445 224.947 44.1286 225.068 44.515 225.165L45.4866 225.403C46.0718 225.545 46.5079 225.763 46.7948 226.055C47.0817 226.345 47.2252 226.719 47.2252 227.176C47.2252 227.551 47.1173 227.886 46.9013 228.182C46.6883 228.477 46.39 228.71 46.0065 228.881C45.6229 229.051 45.1769 229.136 44.6684 229.136C44.0008 229.136 43.4482 228.991 43.0107 228.702C42.5732 228.412 42.2962 227.989 42.1798 227.432L43.1343 227.193C43.2252 227.545 43.3971 227.81 43.6499 227.986C43.9056 228.162 44.2394 228.25 44.6513 228.25C45.1201 228.25 45.4923 228.151 45.7678 227.952C46.0462 227.75 46.1854 227.509 46.1854 227.227C46.1854 227 46.1059 226.81 45.9468 226.656C45.7877 226.5 45.5434 226.384 45.2138 226.307L44.1229 226.051C43.5235 225.909 43.0832 225.689 42.8019 225.391C42.5235 225.089 42.3843 224.713 42.3843 224.261C42.3843 223.892 42.488 223.565 42.6954 223.281C42.9056 222.997 43.1911 222.774 43.5519 222.612C43.9155 222.45 44.3275 222.369 44.7877 222.369C45.4354 222.369 45.944 222.511 46.3133 222.795C46.6854 223.08 46.9496 223.455 47.1059 223.92ZM50.6652 229.153C50.2504 229.153 49.874 229.075 49.5359 228.919C49.1979 228.76 48.9294 228.531 48.7305 228.233C48.5317 227.932 48.4322 227.568 48.4322 227.142C48.4322 226.767 48.5061 226.463 48.6538 226.23C48.8016 225.994 48.999 225.81 49.2462 225.676C49.4933 225.543 49.766 225.443 50.0643 225.378C50.3655 225.31 50.668 225.256 50.972 225.216C51.3697 225.165 51.6922 225.126 51.9393 225.101C52.1893 225.072 52.3712 225.026 52.4848 224.96C52.6013 224.895 52.6595 224.781 52.6595 224.619V224.585C52.6595 224.165 52.5445 223.838 52.3143 223.605C52.0871 223.372 51.7419 223.256 51.2788 223.256C50.7987 223.256 50.4223 223.361 50.1496 223.571C49.8768 223.781 49.6851 224.006 49.5743 224.244L48.6197 223.903C48.7902 223.506 49.0175 223.196 49.3016 222.974C49.5885 222.75 49.901 222.594 50.2391 222.506C50.58 222.415 50.9152 222.369 51.2447 222.369C51.455 222.369 51.6964 222.395 51.9692 222.446C52.2447 222.494 52.5104 222.595 52.766 222.749C53.0246 222.902 53.2391 223.134 53.4095 223.443C53.58 223.753 53.6652 224.168 53.6652 224.688V229H52.6595V228.114H52.6084C52.5402 228.256 52.4266 228.408 52.2675 228.57C52.1084 228.732 51.8967 228.869 51.6325 228.983C51.3683 229.097 51.0459 229.153 50.6652 229.153ZM50.8186 228.25C51.2163 228.25 51.5516 228.172 51.8243 228.016C52.0999 227.859 52.3072 227.658 52.4464 227.411C52.5885 227.163 52.6595 226.903 52.6595 226.631V225.71C52.6169 225.761 52.5231 225.808 52.3783 225.851C52.2362 225.891 52.0714 225.926 51.8839 225.957C51.6993 225.986 51.5189 226.011 51.3428 226.034C51.1695 226.054 51.0288 226.071 50.9209 226.085C50.6595 226.119 50.4152 226.175 50.1879 226.251C49.9635 226.325 49.7817 226.437 49.6425 226.588C49.5061 226.736 49.4379 226.937 49.4379 227.193C49.4379 227.543 49.5672 227.807 49.8257 227.986C50.0871 228.162 50.418 228.25 50.8186 228.25ZM58.1428 231.591C57.657 231.591 57.2394 231.528 56.89 231.403C56.5405 231.281 56.2494 231.119 56.0164 230.918C55.7863 230.719 55.603 230.506 55.4667 230.278L56.2678 229.716C56.3587 229.835 56.4738 229.972 56.613 230.125C56.7522 230.281 56.9425 230.416 57.184 230.53C57.4283 230.646 57.7479 230.705 58.1428 230.705C58.6712 230.705 59.1073 230.577 59.4511 230.321C59.7948 230.065 59.9667 229.665 59.9667 229.119V227.79H59.8815C59.8076 227.909 59.7025 228.057 59.5661 228.233C59.4326 228.406 59.2394 228.561 58.9866 228.697C58.7366 228.831 58.3985 228.898 57.9724 228.898C57.444 228.898 56.9695 228.773 56.5491 228.523C56.1315 228.273 55.8005 227.909 55.5562 227.432C55.3147 226.955 55.194 226.375 55.194 225.693C55.194 225.023 55.3119 224.439 55.5477 223.942C55.7834 223.442 56.1116 223.055 56.532 222.783C56.9525 222.507 57.4383 222.369 57.9894 222.369C58.4155 222.369 58.7536 222.44 59.0036 222.582C59.2565 222.722 59.4496 222.881 59.5832 223.06C59.7195 223.236 59.8246 223.381 59.8985 223.494H60.0008V222.455H60.9724V229.188C60.9724 229.75 60.8445 230.207 60.5888 230.56C60.336 230.915 59.9951 231.175 59.5661 231.339C59.14 231.507 58.6655 231.591 58.1428 231.591ZM58.1087 227.994C58.5121 227.994 58.853 227.902 59.1315 227.717C59.4099 227.533 59.6215 227.267 59.7664 226.92C59.9113 226.574 59.9837 226.159 59.9837 225.676C59.9837 225.205 59.9127 224.788 59.7707 224.428C59.6286 224.067 59.4184 223.784 59.14 223.58C58.8616 223.375 58.5178 223.273 58.1087 223.273C57.6826 223.273 57.3275 223.381 57.0434 223.597C56.7621 223.812 56.5505 224.102 56.4084 224.466C56.2692 224.83 56.1996 225.233 56.1996 225.676C56.1996 226.131 56.2707 226.533 56.4127 226.882C56.5576 227.229 56.7707 227.501 57.0519 227.7C57.336 227.896 57.6883 227.994 58.1087 227.994ZM65.5576 229.136C64.9269 229.136 64.3829 228.997 63.9255 228.719C63.4709 228.438 63.1201 228.045 62.8729 227.543C62.6286 227.037 62.5065 226.449 62.5065 225.778C62.5065 225.108 62.6286 224.517 62.8729 224.006C63.1201 223.491 63.4638 223.091 63.9042 222.804C64.3474 222.514 64.8644 222.369 65.4553 222.369C65.7962 222.369 66.1329 222.426 66.4653 222.54C66.7977 222.653 67.1002 222.838 67.3729 223.094C67.6457 223.347 67.863 223.682 68.0249 224.099C68.1869 224.517 68.2678 225.031 68.2678 225.642V226.068H63.2224V225.199H67.2451C67.2451 224.83 67.1712 224.5 67.0235 224.21C66.8786 223.92 66.6712 223.692 66.4013 223.524C66.1343 223.357 65.819 223.273 65.4553 223.273C65.0548 223.273 64.7082 223.372 64.4155 223.571C64.1258 223.767 63.9028 224.023 63.7465 224.338C63.5903 224.653 63.5121 224.991 63.5121 225.352V225.932C63.5121 226.426 63.5974 226.845 63.7678 227.189C63.9411 227.53 64.1812 227.79 64.488 227.969C64.7948 228.145 65.1513 228.233 65.5576 228.233C65.8218 228.233 66.0604 228.196 66.2735 228.122C66.4894 228.045 66.6755 227.932 66.8317 227.781C66.988 227.628 67.1087 227.437 67.194 227.21L68.1655 227.483C68.0633 227.812 67.8914 228.102 67.6499 228.352C67.4084 228.599 67.1102 228.793 66.755 228.932C66.3999 229.068 66.0008 229.136 65.5576 229.136Z" fill="white"/>
<path d="M443.063 220.273H444.324L447.29 227.517H447.392L450.358 220.273H451.62V229H450.631V222.369H450.546L447.819 229H446.864L444.137 222.369H444.052V229H443.063V220.273ZM456.261 229.136C455.671 229.136 455.152 228.996 454.706 228.714C454.263 228.433 453.916 228.04 453.666 227.534C453.419 227.028 453.296 226.437 453.296 225.761C453.296 225.08 453.419 224.484 453.666 223.976C453.916 223.467 454.263 223.072 454.706 222.791C455.152 222.51 455.671 222.369 456.261 222.369C456.852 222.369 457.369 222.51 457.813 222.791C458.259 223.072 458.605 223.467 458.852 223.976C459.102 224.484 459.227 225.08 459.227 225.761C459.227 226.437 459.102 227.028 458.852 227.534C458.605 228.04 458.259 228.433 457.813 228.714C457.369 228.996 456.852 229.136 456.261 229.136ZM456.261 228.233C456.71 228.233 457.08 228.118 457.369 227.888C457.659 227.658 457.874 227.355 458.013 226.98C458.152 226.605 458.222 226.199 458.222 225.761C458.222 225.324 458.152 224.916 458.013 224.538C457.874 224.161 457.659 223.855 457.369 223.622C457.08 223.389 456.71 223.273 456.261 223.273C455.813 223.273 455.443 223.389 455.153 223.622C454.864 223.855 454.649 224.161 454.51 224.538C454.371 224.916 454.301 225.324 454.301 225.761C454.301 226.199 454.371 226.605 454.51 226.98C454.649 227.355 454.864 227.658 455.153 227.888C455.443 228.118 455.813 228.233 456.261 228.233ZM460.762 229V222.455H461.734V223.443H461.802C461.922 223.119 462.137 222.857 462.45 222.655C462.762 222.453 463.115 222.352 463.507 222.352C463.581 222.352 463.673 222.354 463.784 222.357C463.895 222.359 463.978 222.364 464.035 222.369V223.392C464.001 223.384 463.923 223.371 463.801 223.354C463.682 223.334 463.555 223.324 463.422 223.324C463.103 223.324 462.819 223.391 462.569 223.524C462.322 223.655 462.126 223.837 461.981 224.07C461.839 224.3 461.768 224.562 461.768 224.858V229H460.762ZM467.772 229.136C467.142 229.136 466.598 228.997 466.14 228.719C465.686 228.438 465.335 228.045 465.088 227.543C464.843 227.037 464.721 226.449 464.721 225.778C464.721 225.108 464.843 224.517 465.088 224.006C465.335 223.491 465.679 223.091 466.119 222.804C466.562 222.514 467.079 222.369 467.67 222.369C468.011 222.369 468.348 222.426 468.68 222.54C469.012 222.653 469.315 222.838 469.588 223.094C469.861 223.347 470.078 223.682 470.24 224.099C470.402 224.517 470.483 225.031 470.483 225.642V226.068H465.437V225.199H469.46C469.46 224.83 469.386 224.5 469.238 224.21C469.093 223.92 468.886 223.692 468.616 223.524C468.349 223.357 468.034 223.273 467.67 223.273C467.27 223.273 466.923 223.372 466.63 223.571C466.341 223.767 466.118 224.023 465.961 224.338C465.805 224.653 465.727 224.991 465.727 225.352V225.932C465.727 226.426 465.812 226.845 465.983 227.189C466.156 227.53 466.396 227.79 466.703 227.969C467.01 228.145 467.366 228.233 467.772 228.233C468.037 228.233 468.275 228.196 468.488 228.122C468.704 228.045 468.89 227.932 469.047 227.781C469.203 227.628 469.324 227.437 469.409 227.21L470.38 227.483C470.278 227.812 470.106 228.102 469.865 228.352C469.623 228.599 469.325 228.793 468.97 228.932C468.615 229.068 468.216 229.136 467.772 229.136ZM481.251 220.273H482.308V226.051C482.308 226.648 482.167 227.18 481.886 227.649C481.608 228.115 481.214 228.483 480.706 228.753C480.197 229.02 479.601 229.153 478.916 229.153C478.231 229.153 477.635 229.02 477.126 228.753C476.618 228.483 476.223 228.115 475.941 227.649C475.663 227.18 475.524 226.648 475.524 226.051V220.273H476.581V225.966C476.581 226.392 476.674 226.771 476.862 227.104C477.049 227.433 477.316 227.693 477.663 227.884C478.012 228.071 478.43 228.165 478.916 228.165C479.402 228.165 479.819 228.071 480.169 227.884C480.518 227.693 480.785 227.433 480.97 227.104C481.157 226.771 481.251 226.392 481.251 225.966V220.273ZM488.918 223.92L488.015 224.176C487.958 224.026 487.874 223.879 487.764 223.737C487.656 223.592 487.508 223.473 487.32 223.379C487.133 223.286 486.893 223.239 486.6 223.239C486.2 223.239 485.866 223.331 485.599 223.516C485.335 223.697 485.202 223.929 485.202 224.21C485.202 224.46 485.293 224.658 485.475 224.803C485.657 224.947 485.941 225.068 486.327 225.165L487.299 225.403C487.884 225.545 488.32 225.763 488.607 226.055C488.894 226.345 489.038 226.719 489.038 227.176C489.038 227.551 488.93 227.886 488.714 228.182C488.501 228.477 488.202 228.71 487.819 228.881C487.435 229.051 486.989 229.136 486.481 229.136C485.813 229.136 485.261 228.991 484.823 228.702C484.386 228.412 484.109 227.989 483.992 227.432L484.947 227.193C485.038 227.545 485.21 227.81 485.462 227.986C485.718 228.162 486.052 228.25 486.464 228.25C486.933 228.25 487.305 228.151 487.58 227.952C487.859 227.75 487.998 227.509 487.998 227.227C487.998 227 487.918 226.81 487.759 226.656C487.6 226.5 487.356 226.384 487.026 226.307L485.935 226.051C485.336 225.909 484.896 225.689 484.614 225.391C484.336 225.089 484.197 224.713 484.197 224.261C484.197 223.892 484.3 223.565 484.508 223.281C484.718 222.997 485.004 222.774 485.364 222.612C485.728 222.45 486.14 222.369 486.6 222.369C487.248 222.369 487.756 222.511 488.126 222.795C488.498 223.08 488.762 223.455 488.918 223.92ZM492.478 229.153C492.063 229.153 491.687 229.075 491.348 228.919C491.01 228.76 490.742 228.531 490.543 228.233C490.344 227.932 490.245 227.568 490.245 227.142C490.245 226.767 490.319 226.463 490.466 226.23C490.614 225.994 490.812 225.81 491.059 225.676C491.306 225.543 491.579 225.443 491.877 225.378C492.178 225.31 492.481 225.256 492.785 225.216C493.182 225.165 493.505 225.126 493.752 225.101C494.002 225.072 494.184 225.026 494.297 224.96C494.414 224.895 494.472 224.781 494.472 224.619V224.585C494.472 224.165 494.357 223.838 494.127 223.605C493.9 223.372 493.554 223.256 493.091 223.256C492.611 223.256 492.235 223.361 491.962 223.571C491.689 223.781 491.498 224.006 491.387 224.244L490.432 223.903C490.603 223.506 490.83 223.196 491.114 222.974C491.401 222.75 491.713 222.594 492.052 222.506C492.392 222.415 492.728 222.369 493.057 222.369C493.267 222.369 493.509 222.395 493.782 222.446C494.057 222.494 494.323 222.595 494.579 222.749C494.837 222.902 495.052 223.134 495.222 223.443C495.392 223.753 495.478 224.168 495.478 224.688V229H494.472V228.114H494.421C494.353 228.256 494.239 228.408 494.08 228.57C493.921 228.732 493.709 228.869 493.445 228.983C493.181 229.097 492.858 229.153 492.478 229.153ZM492.631 228.25C493.029 228.25 493.364 228.172 493.637 228.016C493.912 227.859 494.12 227.658 494.259 227.411C494.401 227.163 494.472 226.903 494.472 226.631V225.71C494.429 225.761 494.336 225.808 494.191 225.851C494.049 225.891 493.884 225.926 493.696 225.957C493.512 225.986 493.331 226.011 493.155 226.034C492.982 226.054 492.841 226.071 492.733 226.085C492.472 226.119 492.228 226.175 492 226.251C491.776 226.325 491.594 226.437 491.455 226.588C491.319 226.736 491.25 226.937 491.25 227.193C491.25 227.543 491.38 227.807 491.638 227.986C491.9 228.162 492.231 228.25 492.631 228.25ZM499.955 231.591C499.47 231.591 499.052 231.528 498.702 231.403C498.353 231.281 498.062 231.119 497.829 230.918C497.599 230.719 497.416 230.506 497.279 230.278L498.08 229.716C498.171 229.835 498.286 229.972 498.425 230.125C498.565 230.281 498.755 230.416 498.997 230.53C499.241 230.646 499.56 230.705 499.955 230.705C500.484 230.705 500.92 230.577 501.264 230.321C501.607 230.065 501.779 229.665 501.779 229.119V227.79H501.694C501.62 227.909 501.515 228.057 501.379 228.233C501.245 228.406 501.052 228.561 500.799 228.697C500.549 228.831 500.211 228.898 499.785 228.898C499.256 228.898 498.782 228.773 498.362 228.523C497.944 228.273 497.613 227.909 497.369 227.432C497.127 226.955 497.006 226.375 497.006 225.693C497.006 225.023 497.124 224.439 497.36 223.942C497.596 223.442 497.924 223.055 498.345 222.783C498.765 222.507 499.251 222.369 499.802 222.369C500.228 222.369 500.566 222.44 500.816 222.582C501.069 222.722 501.262 222.881 501.396 223.06C501.532 223.236 501.637 223.381 501.711 223.494H501.813V222.455H502.785V229.188C502.785 229.75 502.657 230.207 502.401 230.56C502.149 230.915 501.808 231.175 501.379 231.339C500.952 231.507 500.478 231.591 499.955 231.591ZM499.921 227.994C500.325 227.994 500.666 227.902 500.944 227.717C501.222 227.533 501.434 227.267 501.579 226.92C501.724 226.574 501.796 226.159 501.796 225.676C501.796 225.205 501.725 224.788 501.583 224.428C501.441 224.067 501.231 223.784 500.952 223.58C500.674 223.375 500.33 223.273 499.921 223.273C499.495 223.273 499.14 223.381 498.856 223.597C498.575 223.812 498.363 224.102 498.221 224.466C498.082 224.83 498.012 225.233 498.012 225.676C498.012 226.131 498.083 226.533 498.225 226.882C498.37 227.229 498.583 227.501 498.864 227.7C499.149 227.896 499.501 227.994 499.921 227.994ZM507.37 229.136C506.739 229.136 506.195 228.997 505.738 228.719C505.283 228.438 504.933 228.045 504.685 227.543C504.441 227.037 504.319 226.449 504.319 225.778C504.319 225.108 504.441 224.517 504.685 224.006C504.933 223.491 505.276 223.091 505.717 222.804C506.16 222.514 506.677 222.369 507.268 222.369C507.609 222.369 507.945 222.426 508.278 222.54C508.61 222.653 508.913 222.838 509.185 223.094C509.458 223.347 509.675 223.682 509.837 224.099C509.999 224.517 510.08 225.031 510.08 225.642V226.068H505.035V225.199H509.058C509.058 224.83 508.984 224.5 508.836 224.21C508.691 223.92 508.484 223.692 508.214 223.524C507.947 223.357 507.631 223.273 507.268 223.273C506.867 223.273 506.521 223.372 506.228 223.571C505.938 223.767 505.715 224.023 505.559 224.338C505.403 224.653 505.325 224.991 505.325 225.352V225.932C505.325 226.426 505.41 226.845 505.58 227.189C505.754 227.53 505.994 227.79 506.3 227.969C506.607 228.145 506.964 228.233 507.37 228.233C507.634 228.233 507.873 228.196 508.086 228.122C508.302 228.045 508.488 227.932 508.644 227.781C508.8 227.628 508.921 227.437 509.006 227.21L509.978 227.483C509.876 227.812 509.704 228.102 509.462 228.352C509.221 228.599 508.923 228.793 508.568 228.932C508.212 229.068 507.813 229.136 507.37 229.136Z" fill="white"/>
</svg>
