<svg width="395" height="406" viewBox="0 0 395 406" fill="none" xmlns="http://www.w3.org/2000/svg">
<g clip-path="url(#clip0_3_2)">
<rect width="395" height="406" fill="white"/>
<rect width="395" height="406" fill="#1D2025"/>
<path d="M56.4091 97V85.3636H57.8182V90.5455H64.0227V85.3636H65.4318V97H64.0227V91.7955H57.8182V97H56.4091ZM71.6165 97.1818C70.8286 97.1818 70.1373 96.9943 69.5426 96.6193C68.9517 96.2443 68.4896 95.7197 68.1562 95.0455C67.8267 94.3712 67.6619 93.5833 67.6619 92.6818C67.6619 91.7727 67.8267 90.9792 68.1562 90.3011C68.4896 89.6231 68.9517 89.0966 69.5426 88.7216C70.1373 88.3466 70.8286 88.1591 71.6165 88.1591C72.4044 88.1591 73.0938 88.3466 73.6847 88.7216C74.2794 89.0966 74.7415 89.6231 75.071 90.3011C75.4044 90.9792 75.571 91.7727 75.571 92.6818C75.571 93.5833 75.4044 94.3712 75.071 95.0455C74.7415 95.7197 74.2794 96.2443 73.6847 96.6193C73.0938 96.9943 72.4044 97.1818 71.6165 97.1818ZM71.6165 95.9773C72.215 95.9773 72.7074 95.8239 73.0938 95.517C73.4801 95.2102 73.7661 94.8068 73.9517 94.3068C74.1373 93.8068 74.2301 93.2652 74.2301 92.6818C74.2301 92.0985 74.1373 91.5549 73.9517 91.0511C73.7661 90.5473 73.4801 90.1402 73.0938 89.8295C72.7074 89.5189 72.215 89.3636 71.6165 89.3636C71.018 89.3636 70.5256 89.5189 70.1392 89.8295C69.7528 90.1402 69.4669 90.5473 69.2812 91.0511C69.0956 91.5549 69.0028 92.0985 69.0028 92.6818C69.0028 93.2652 69.0956 93.8068 69.2812 94.3068C69.4669 94.8068 69.7528 95.2102 70.1392 95.517C70.5256 95.8239 71.018 95.9773 71.6165 95.9773ZM77.6179 97V88.2727H78.9134V89.6364H79.027C79.2088 89.1705 79.5024 88.8087 79.9077 88.5511C80.313 88.2898 80.7997 88.1591 81.3679 88.1591C81.9437 88.1591 82.4228 88.2898 82.8054 88.5511C83.1918 88.8087 83.4929 89.1705 83.7088 89.6364H83.7997C84.0232 89.1856 84.3584 88.8277 84.8054 88.5625C85.2524 88.2936 85.7884 88.1591 86.4134 88.1591C87.1937 88.1591 87.8319 88.4034 88.3281 88.892C88.8243 89.3769 89.0724 90.1326 89.0724 91.1591V97H87.7315V91.1591C87.7315 90.5152 87.5554 90.0549 87.2031 89.7784C86.8509 89.5019 86.4361 89.3636 85.9588 89.3636C85.3452 89.3636 84.8698 89.5492 84.5327 89.9205C84.1955 90.2879 84.027 90.7538 84.027 91.3182V97H82.6634V91.0227C82.6634 90.5265 82.5024 90.1269 82.1804 89.8239C81.8584 89.517 81.4437 89.3636 80.9361 89.3636C80.5876 89.3636 80.2618 89.4564 79.9588 89.642C79.6596 89.8277 79.4171 90.0852 79.2315 90.4148C79.0497 90.7405 78.9588 91.1174 78.9588 91.5455V97H77.6179ZM95.1832 97.1818C94.3423 97.1818 93.617 96.9962 93.0071 96.625C92.401 96.25 91.9332 95.7273 91.6037 95.0568C91.2779 94.3826 91.1151 93.5985 91.1151 92.7045C91.1151 91.8106 91.2779 91.0227 91.6037 90.3409C91.9332 89.6553 92.3916 89.1212 92.9787 88.7386C93.5696 88.3523 94.259 88.1591 95.0469 88.1591C95.5014 88.1591 95.9503 88.2348 96.3935 88.3864C96.8366 88.5379 97.2401 88.7841 97.6037 89.125C97.9673 89.4621 98.2571 89.9091 98.473 90.4659C98.6889 91.0227 98.7969 91.7083 98.7969 92.5227V93.0909H92.0696V91.9318H97.4332C97.4332 91.4394 97.3348 91 97.1378 90.6136C96.9446 90.2273 96.6681 89.9223 96.3082 89.6989C95.9522 89.4754 95.5317 89.3636 95.0469 89.3636C94.5128 89.3636 94.0507 89.4962 93.6605 89.7614C93.2741 90.0227 92.9768 90.3636 92.7685 90.7841C92.5601 91.2045 92.456 91.6553 92.456 92.1364V92.9091C92.456 93.5682 92.5696 94.1269 92.7969 94.5852C93.0279 95.0398 93.348 95.3864 93.7571 95.625C94.1662 95.8598 94.6416 95.9773 95.1832 95.9773C95.5355 95.9773 95.8537 95.928 96.1378 95.8295C96.4257 95.7273 96.6738 95.5758 96.8821 95.375C97.0904 95.1705 97.2514 94.9167 97.3651 94.6136L98.6605 94.9773C98.5241 95.4167 98.295 95.803 97.973 96.1364C97.651 96.4659 97.2533 96.7235 96.7798 96.9091C96.3063 97.0909 95.7741 97.1818 95.1832 97.1818Z" fill="white"/>
<path d="M64.7727 134H63.3636C63.2803 133.595 63.1345 133.239 62.9261 132.932C62.7216 132.625 62.4716 132.367 62.1761 132.159C61.8845 131.947 61.5606 131.788 61.2045 131.682C60.8485 131.576 60.4773 131.523 60.0909 131.523C59.3864 131.523 58.7481 131.701 58.1761 132.057C57.608 132.413 57.1553 132.938 56.8182 133.631C56.4848 134.324 56.3182 135.174 56.3182 136.182C56.3182 137.189 56.4848 138.04 56.8182 138.733C57.1553 139.426 57.608 139.951 58.1761 140.307C58.7481 140.663 59.3864 140.841 60.0909 140.841C60.4773 140.841 60.8485 140.788 61.2045 140.682C61.5606 140.576 61.8845 140.419 62.1761 140.21C62.4716 139.998 62.7216 139.739 62.9261 139.432C63.1345 139.121 63.2803 138.765 63.3636 138.364H64.7727C64.6667 138.958 64.4735 139.491 64.1932 139.96C63.9129 140.43 63.5644 140.83 63.1477 141.159C62.7311 141.485 62.2633 141.733 61.7443 141.903C61.2292 142.074 60.678 142.159 60.0909 142.159C59.0985 142.159 58.2159 141.917 57.4432 141.432C56.6705 140.947 56.0625 140.258 55.6193 139.364C55.1761 138.47 54.9545 137.409 54.9545 136.182C54.9545 134.955 55.1761 133.894 55.6193 133C56.0625 132.106 56.6705 131.417 57.4432 130.932C58.2159 130.447 59.0985 130.205 60.0909 130.205C60.678 130.205 61.2292 130.29 61.7443 130.46C62.2633 130.631 62.7311 130.881 63.1477 131.21C63.5644 131.536 63.9129 131.934 64.1932 132.403C64.4735 132.869 64.6667 133.402 64.7727 134ZM68.2088 130.364V142H66.8679V130.364H68.2088ZM74.2102 142.182C73.4223 142.182 72.7311 141.994 72.1364 141.619C71.5455 141.244 71.0833 140.72 70.75 140.045C70.4205 139.371 70.2557 138.583 70.2557 137.682C70.2557 136.773 70.4205 135.979 70.75 135.301C71.0833 134.623 71.5455 134.097 72.1364 133.722C72.7311 133.347 73.4223 133.159 74.2102 133.159C74.9981 133.159 75.6875 133.347 76.2784 133.722C76.8731 134.097 77.3352 134.623 77.6648 135.301C77.9981 135.979 78.1648 136.773 78.1648 137.682C78.1648 138.583 77.9981 139.371 77.6648 140.045C77.3352 140.72 76.8731 141.244 76.2784 141.619C75.6875 141.994 74.9981 142.182 74.2102 142.182ZM74.2102 140.977C74.8087 140.977 75.3011 140.824 75.6875 140.517C76.0739 140.21 76.3598 139.807 76.5455 139.307C76.7311 138.807 76.8239 138.265 76.8239 137.682C76.8239 137.098 76.7311 136.555 76.5455 136.051C76.3598 135.547 76.0739 135.14 75.6875 134.83C75.3011 134.519 74.8087 134.364 74.2102 134.364C73.6117 134.364 73.1193 134.519 72.733 134.83C72.3466 135.14 72.0606 135.547 71.875 136.051C71.6894 136.555 71.5966 137.098 71.5966 137.682C71.5966 138.265 71.6894 138.807 71.875 139.307C72.0606 139.807 72.3466 140.21 72.733 140.517C73.1193 140.824 73.6117 140.977 74.2102 140.977ZM85.7116 138.432V133.273H87.0526V142H85.7116V140.523H85.6207C85.4162 140.966 85.098 141.343 84.6662 141.653C84.2344 141.96 83.6889 142.114 83.0298 142.114C82.4844 142.114 81.9995 141.994 81.5753 141.756C81.151 141.513 80.8177 141.15 80.5753 140.665C80.3329 140.176 80.2116 139.561 80.2116 138.818V133.273H81.5526V138.727C81.5526 139.364 81.7306 139.871 82.0866 140.25C82.4465 140.629 82.9048 140.818 83.4616 140.818C83.795 140.818 84.134 140.733 84.4787 140.562C84.8272 140.392 85.1188 140.131 85.3537 139.778C85.5923 139.426 85.7116 138.977 85.7116 138.432ZM92.804 142.182C92.0767 142.182 91.4347 141.998 90.8778 141.631C90.321 141.259 89.8854 140.737 89.571 140.062C89.2566 139.384 89.0994 138.583 89.0994 137.659C89.0994 136.742 89.2566 135.947 89.571 135.273C89.8854 134.598 90.3229 134.078 90.8835 133.71C91.4441 133.343 92.0919 133.159 92.8267 133.159C93.3949 133.159 93.8438 133.254 94.1733 133.443C94.5066 133.629 94.7604 133.841 94.9347 134.08C95.1127 134.314 95.2509 134.508 95.3494 134.659H95.4631V130.364H96.804V142H95.5085V140.659H95.3494C95.2509 140.818 95.1108 141.019 94.929 141.261C94.7472 141.5 94.4877 141.714 94.1506 141.903C93.8134 142.089 93.3646 142.182 92.804 142.182ZM92.9858 140.977C93.5237 140.977 93.9782 140.837 94.3494 140.557C94.7206 140.273 95.0028 139.881 95.196 139.381C95.3892 138.877 95.4858 138.295 95.4858 137.636C95.4858 136.985 95.3911 136.415 95.2017 135.926C95.0123 135.434 94.732 135.051 94.3608 134.778C93.9896 134.502 93.5313 134.364 92.9858 134.364C92.4176 134.364 91.9441 134.509 91.5653 134.801C91.1903 135.089 90.9081 135.481 90.7188 135.977C90.5331 136.47 90.4403 137.023 90.4403 137.636C90.4403 138.258 90.535 138.822 90.7244 139.33C90.9176 139.833 91.2017 140.235 91.5767 140.534C91.9555 140.83 92.4252 140.977 92.9858 140.977ZM110.491 133.273C110.423 132.697 110.147 132.25 109.662 131.932C109.177 131.614 108.582 131.455 107.878 131.455C107.363 131.455 106.912 131.538 106.526 131.705C106.143 131.871 105.844 132.1 105.628 132.392C105.416 132.684 105.31 133.015 105.31 133.386C105.31 133.697 105.384 133.964 105.531 134.188C105.683 134.407 105.876 134.591 106.111 134.739C106.346 134.883 106.592 135.002 106.849 135.097C107.107 135.187 107.344 135.261 107.56 135.318L108.741 135.636C109.045 135.716 109.382 135.826 109.753 135.966C110.128 136.106 110.486 136.297 110.827 136.54C111.171 136.778 111.455 137.085 111.679 137.46C111.902 137.835 112.014 138.295 112.014 138.841C112.014 139.47 111.849 140.038 111.52 140.545C111.194 141.053 110.717 141.456 110.088 141.756C109.463 142.055 108.704 142.205 107.81 142.205C106.976 142.205 106.255 142.07 105.645 141.801C105.039 141.532 104.562 141.157 104.213 140.676C103.868 140.195 103.673 139.636 103.628 139H105.082C105.12 139.439 105.268 139.803 105.526 140.091C105.787 140.375 106.116 140.587 106.514 140.727C106.916 140.864 107.348 140.932 107.81 140.932C108.348 140.932 108.83 140.845 109.259 140.67C109.687 140.492 110.026 140.246 110.276 139.932C110.526 139.614 110.651 139.242 110.651 138.818C110.651 138.432 110.543 138.117 110.327 137.875C110.111 137.633 109.827 137.436 109.474 137.284C109.122 137.133 108.741 137 108.332 136.886L106.901 136.477C105.991 136.216 105.272 135.843 104.741 135.358C104.211 134.873 103.946 134.239 103.946 133.455C103.946 132.803 104.122 132.235 104.474 131.75C104.83 131.261 105.308 130.883 105.906 130.614C106.509 130.341 107.181 130.205 107.923 130.205C108.673 130.205 109.34 130.339 109.923 130.608C110.507 130.873 110.969 131.237 111.31 131.699C111.654 132.161 111.836 132.686 111.855 133.273H110.491ZM117.945 133.273V134.409H113.422V133.273H117.945ZM114.74 131.182H116.081V139.5C116.081 139.879 116.136 140.163 116.246 140.352C116.359 140.538 116.503 140.663 116.678 140.727C116.856 140.788 117.043 140.818 117.24 140.818C117.388 140.818 117.509 140.811 117.604 140.795C117.698 140.777 117.774 140.761 117.831 140.75L118.104 141.955C118.013 141.989 117.886 142.023 117.723 142.057C117.56 142.095 117.354 142.114 117.104 142.114C116.725 142.114 116.354 142.032 115.99 141.869C115.63 141.706 115.331 141.458 115.092 141.125C114.857 140.792 114.74 140.371 114.74 139.864V131.182ZM123.413 142.182C122.625 142.182 121.934 141.994 121.339 141.619C120.749 141.244 120.286 140.72 119.953 140.045C119.624 139.371 119.459 138.583 119.459 137.682C119.459 136.773 119.624 135.979 119.953 135.301C120.286 134.623 120.749 134.097 121.339 133.722C121.934 133.347 122.625 133.159 123.413 133.159C124.201 133.159 124.891 133.347 125.482 133.722C126.076 134.097 126.538 134.623 126.868 135.301C127.201 135.979 127.368 136.773 127.368 137.682C127.368 138.583 127.201 139.371 126.868 140.045C126.538 140.72 126.076 141.244 125.482 141.619C124.891 141.994 124.201 142.182 123.413 142.182ZM123.413 140.977C124.012 140.977 124.504 140.824 124.891 140.517C125.277 140.21 125.563 139.807 125.749 139.307C125.934 138.807 126.027 138.265 126.027 137.682C126.027 137.098 125.934 136.555 125.749 136.051C125.563 135.547 125.277 135.14 124.891 134.83C124.504 134.519 124.012 134.364 123.413 134.364C122.815 134.364 122.322 134.519 121.936 134.83C121.55 135.14 121.264 135.547 121.078 136.051C120.893 136.555 120.8 137.098 120.8 137.682C120.8 138.265 120.893 138.807 121.078 139.307C121.264 139.807 121.55 140.21 121.936 140.517C122.322 140.824 122.815 140.977 123.413 140.977ZM129.415 142V133.273H130.71V134.591H130.801C130.96 134.159 131.248 133.809 131.665 133.54C132.081 133.271 132.551 133.136 133.074 133.136C133.172 133.136 133.295 133.138 133.443 133.142C133.591 133.146 133.703 133.152 133.778 133.159V134.523C133.733 134.511 133.629 134.494 133.466 134.472C133.307 134.445 133.138 134.432 132.96 134.432C132.536 134.432 132.157 134.521 131.824 134.699C131.494 134.873 131.233 135.116 131.04 135.426C130.85 135.733 130.756 136.083 130.756 136.477V142H129.415ZM138.761 142.182C137.92 142.182 137.195 141.996 136.585 141.625C135.979 141.25 135.511 140.727 135.182 140.057C134.856 139.383 134.693 138.598 134.693 137.705C134.693 136.811 134.856 136.023 135.182 135.341C135.511 134.655 135.97 134.121 136.557 133.739C137.148 133.352 137.837 133.159 138.625 133.159C139.08 133.159 139.528 133.235 139.972 133.386C140.415 133.538 140.818 133.784 141.182 134.125C141.545 134.462 141.835 134.909 142.051 135.466C142.267 136.023 142.375 136.708 142.375 137.523V138.091H135.648V136.932H141.011C141.011 136.439 140.913 136 140.716 135.614C140.523 135.227 140.246 134.922 139.886 134.699C139.53 134.475 139.11 134.364 138.625 134.364C138.091 134.364 137.629 134.496 137.239 134.761C136.852 135.023 136.555 135.364 136.347 135.784C136.138 136.205 136.034 136.655 136.034 137.136V137.909C136.034 138.568 136.148 139.127 136.375 139.585C136.606 140.04 136.926 140.386 137.335 140.625C137.744 140.86 138.22 140.977 138.761 140.977C139.114 140.977 139.432 140.928 139.716 140.83C140.004 140.727 140.252 140.576 140.46 140.375C140.669 140.17 140.83 139.917 140.943 139.614L142.239 139.977C142.102 140.417 141.873 140.803 141.551 141.136C141.229 141.466 140.831 141.723 140.358 141.909C139.884 142.091 139.352 142.182 138.761 142.182Z" fill="white"/>
<path d="M61.7727 178.273C61.7045 177.697 61.428 177.25 60.9432 176.932C60.4583 176.614 59.8636 176.455 59.1591 176.455C58.6439 176.455 58.1932 176.538 57.8068 176.705C57.4242 176.871 57.125 177.1 56.9091 177.392C56.697 177.684 56.5909 178.015 56.5909 178.386C56.5909 178.697 56.6648 178.964 56.8125 179.188C56.964 179.407 57.1572 179.591 57.392 179.739C57.6269 179.883 57.8731 180.002 58.1307 180.097C58.3883 180.187 58.625 180.261 58.8409 180.318L60.0227 180.636C60.3258 180.716 60.6629 180.826 61.0341 180.966C61.4091 181.106 61.767 181.297 62.108 181.54C62.4527 181.778 62.7367 182.085 62.9602 182.46C63.1837 182.835 63.2955 183.295 63.2955 183.841C63.2955 184.47 63.1307 185.038 62.8011 185.545C62.4754 186.053 61.9981 186.456 61.3693 186.756C60.7443 187.055 59.9848 187.205 59.0909 187.205C58.2576 187.205 57.536 187.07 56.9261 186.801C56.3201 186.532 55.8428 186.157 55.4943 185.676C55.1496 185.195 54.9545 184.636 54.9091 184H56.3636C56.4015 184.439 56.5492 184.803 56.8068 185.091C57.0682 185.375 57.3977 185.587 57.7955 185.727C58.197 185.864 58.6288 185.932 59.0909 185.932C59.6288 185.932 60.1117 185.845 60.5398 185.67C60.9678 185.492 61.3068 185.246 61.5568 184.932C61.8068 184.614 61.9318 184.242 61.9318 183.818C61.9318 183.432 61.8239 183.117 61.608 182.875C61.392 182.633 61.108 182.436 60.7557 182.284C60.4034 182.133 60.0227 182 59.6136 181.886L58.1818 181.477C57.2727 181.216 56.553 180.843 56.0227 180.358C55.4924 179.873 55.2273 179.239 55.2273 178.455C55.2273 177.803 55.4034 177.235 55.7557 176.75C56.1117 176.261 56.589 175.883 57.1875 175.614C57.7898 175.341 58.4621 175.205 59.2045 175.205C59.9545 175.205 60.6212 175.339 61.2045 175.608C61.7879 175.873 62.25 176.237 62.5909 176.699C62.9356 177.161 63.1174 177.686 63.1364 178.273H61.7727ZM67.9986 187.205C67.4455 187.205 66.9437 187.1 66.4929 186.892C66.0421 186.68 65.6842 186.375 65.419 185.977C65.1539 185.576 65.0213 185.091 65.0213 184.523C65.0213 184.023 65.1198 183.617 65.3168 183.307C65.5137 182.992 65.777 182.746 66.1065 182.568C66.4361 182.39 66.7997 182.258 67.1974 182.17C67.599 182.08 68.0024 182.008 68.4077 181.955C68.938 181.886 69.3679 181.835 69.6974 181.801C70.0308 181.763 70.2732 181.701 70.4247 181.614C70.58 181.527 70.6577 181.375 70.6577 181.159V181.114C70.6577 180.553 70.5043 180.117 70.1974 179.807C69.8944 179.496 69.4342 179.341 68.8168 179.341C68.1766 179.341 67.6747 179.481 67.3111 179.761C66.9474 180.042 66.6918 180.341 66.544 180.659L65.2713 180.205C65.4986 179.674 65.8016 179.261 66.1804 178.966C66.563 178.667 66.9796 178.458 67.4304 178.341C67.8849 178.22 68.3319 178.159 68.7713 178.159C69.0516 178.159 69.3736 178.193 69.7372 178.261C70.1046 178.326 70.4588 178.46 70.7997 178.665C71.1444 178.869 71.4304 179.178 71.6577 179.591C71.8849 180.004 71.9986 180.557 71.9986 181.25V187H70.6577V185.818H70.5895C70.4986 186.008 70.3471 186.21 70.1349 186.426C69.9228 186.642 69.6406 186.826 69.2884 186.977C68.9361 187.129 68.5062 187.205 67.9986 187.205ZM68.2031 186C68.7334 186 69.1804 185.896 69.544 185.688C69.9115 185.479 70.188 185.21 70.3736 184.881C70.563 184.551 70.6577 184.205 70.6577 183.841V182.614C70.6009 182.682 70.4759 182.744 70.2827 182.801C70.0933 182.854 69.8736 182.902 69.6236 182.943C69.3774 182.981 69.1368 183.015 68.902 183.045C68.6709 183.072 68.4834 183.095 68.3395 183.114C67.991 183.159 67.6652 183.233 67.3622 183.335C67.063 183.434 66.8205 183.583 66.6349 183.784C66.4531 183.981 66.3622 184.25 66.3622 184.591C66.3622 185.057 66.5346 185.409 66.8793 185.648C67.2277 185.883 67.669 186 68.2031 186ZM78.2415 178.273V179.409H73.7188V178.273H78.2415ZM75.0369 176.182H76.3778V184.5C76.3778 184.879 76.4328 185.163 76.5426 185.352C76.6563 185.538 76.8002 185.663 76.9744 185.727C77.1525 185.788 77.34 185.818 77.5369 185.818C77.6847 185.818 77.8059 185.811 77.9006 185.795C77.9953 185.777 78.071 185.761 78.1278 185.75L78.4006 186.955C78.3097 186.989 78.1828 187.023 78.0199 187.057C77.857 187.095 77.6506 187.114 77.4006 187.114C77.0218 187.114 76.6506 187.032 76.2869 186.869C75.9271 186.706 75.6278 186.458 75.3892 186.125C75.1544 185.792 75.0369 185.371 75.0369 184.864V176.182ZM83.8239 187.182C82.983 187.182 82.2576 186.996 81.6477 186.625C81.0417 186.25 80.5739 185.727 80.2443 185.057C79.9186 184.383 79.7557 183.598 79.7557 182.705C79.7557 181.811 79.9186 181.023 80.2443 180.341C80.5739 179.655 81.0322 179.121 81.6193 178.739C82.2102 178.352 82.8996 178.159 83.6875 178.159C84.142 178.159 84.5909 178.235 85.0341 178.386C85.4773 178.538 85.8807 178.784 86.2443 179.125C86.608 179.462 86.8977 179.909 87.1136 180.466C87.3295 181.023 87.4375 181.708 87.4375 182.523V183.091H80.7102V181.932H86.0739C86.0739 181.439 85.9754 181 85.7784 180.614C85.5852 180.227 85.3087 179.922 84.9489 179.699C84.5928 179.475 84.1723 179.364 83.6875 179.364C83.1534 179.364 82.6913 179.496 82.3011 179.761C81.9148 180.023 81.6174 180.364 81.4091 180.784C81.2008 181.205 81.0966 181.655 81.0966 182.136V182.909C81.0966 183.568 81.2102 184.127 81.4375 184.585C81.6686 185.04 81.9886 185.386 82.3977 185.625C82.8068 185.86 83.2822 185.977 83.8239 185.977C84.1761 185.977 84.4943 185.928 84.7784 185.83C85.0663 185.727 85.3144 185.576 85.5227 185.375C85.7311 185.17 85.892 184.917 86.0057 184.614L87.3011 184.977C87.1648 185.417 86.9356 185.803 86.6136 186.136C86.2917 186.466 85.8939 186.723 85.4205 186.909C84.947 187.091 84.4148 187.182 83.8239 187.182ZM90.8182 175.364V187H89.4773V175.364H90.8182ZM94.6151 175.364V187H93.2741V175.364H94.6151ZM97.071 187V178.273H98.4119V187H97.071ZM97.7528 176.818C97.4915 176.818 97.2661 176.729 97.0767 176.551C96.8911 176.373 96.7983 176.159 96.7983 175.909C96.7983 175.659 96.8911 175.445 97.0767 175.267C97.2661 175.089 97.4915 175 97.7528 175C98.0142 175 98.2377 175.089 98.4233 175.267C98.6127 175.445 98.7074 175.659 98.7074 175.909C98.7074 176.159 98.6127 176.373 98.4233 176.551C98.2377 176.729 98.0142 176.818 97.7528 176.818ZM104.663 178.273V179.409H100.141V178.273H104.663ZM101.459 176.182H102.8V184.5C102.8 184.879 102.855 185.163 102.964 185.352C103.078 185.538 103.222 185.663 103.396 185.727C103.574 185.788 103.762 185.818 103.959 185.818C104.107 185.818 104.228 185.811 104.322 185.795C104.417 185.777 104.493 185.761 104.55 185.75L104.822 186.955C104.732 186.989 104.605 187.023 104.442 187.057C104.279 187.095 104.072 187.114 103.822 187.114C103.444 187.114 103.072 187.032 102.709 186.869C102.349 186.706 102.05 186.458 101.811 186.125C101.576 185.792 101.459 185.371 101.459 184.864V176.182ZM110.246 187.182C109.405 187.182 108.679 186.996 108.07 186.625C107.464 186.25 106.996 185.727 106.666 185.057C106.34 184.383 106.178 183.598 106.178 182.705C106.178 181.811 106.34 181.023 106.666 180.341C106.996 179.655 107.454 179.121 108.041 178.739C108.632 178.352 109.321 178.159 110.109 178.159C110.564 178.159 111.013 178.235 111.456 178.386C111.899 178.538 112.303 178.784 112.666 179.125C113.03 179.462 113.32 179.909 113.536 180.466C113.751 181.023 113.859 181.708 113.859 182.523V183.091H107.132V181.932H112.496C112.496 181.439 112.397 181 112.2 180.614C112.007 180.227 111.731 179.922 111.371 179.699C111.015 179.475 110.594 179.364 110.109 179.364C109.575 179.364 109.113 179.496 108.723 179.761C108.337 180.023 108.039 180.364 107.831 180.784C107.623 181.205 107.518 181.655 107.518 182.136V182.909C107.518 183.568 107.632 184.127 107.859 184.585C108.09 185.04 108.411 185.386 108.82 185.625C109.229 185.86 109.704 185.977 110.246 185.977C110.598 185.977 110.916 185.928 111.2 185.83C111.488 185.727 111.736 185.576 111.945 185.375C112.153 185.17 112.314 184.917 112.428 184.614L113.723 184.977C113.587 185.417 113.357 185.803 113.036 186.136C112.714 186.466 112.316 186.723 111.842 186.909C111.369 187.091 110.837 187.182 110.246 187.182Z" fill="white"/>
<path d="M56.4091 232V220.364H60.3409C61.2538 220.364 62 220.528 62.5795 220.858C63.1629 221.184 63.5947 221.625 63.875 222.182C64.1553 222.739 64.2955 223.36 64.2955 224.045C64.2955 224.731 64.1553 225.354 63.875 225.915C63.5985 226.475 63.1705 226.922 62.5909 227.256C62.0114 227.585 61.2689 227.75 60.3636 227.75H57.5455V226.5H60.3182C60.9432 226.5 61.4451 226.392 61.8239 226.176C62.2027 225.96 62.4773 225.669 62.6477 225.301C62.822 224.93 62.9091 224.511 62.9091 224.045C62.9091 223.58 62.822 223.163 62.6477 222.795C62.4773 222.428 62.2008 222.14 61.8182 221.932C61.4356 221.72 60.928 221.614 60.2955 221.614H57.8182V232H56.4091ZM67.7244 220.364V232H66.3835V220.364H67.7244ZM72.7486 232.205C72.1955 232.205 71.6937 232.1 71.2429 231.892C70.7921 231.68 70.4342 231.375 70.169 230.977C69.9039 230.576 69.7713 230.091 69.7713 229.523C69.7713 229.023 69.8698 228.617 70.0668 228.307C70.2637 227.992 70.527 227.746 70.8565 227.568C71.1861 227.39 71.5497 227.258 71.9474 227.17C72.349 227.08 72.7524 227.008 73.1577 226.955C73.688 226.886 74.1179 226.835 74.4474 226.801C74.7808 226.763 75.0232 226.701 75.1747 226.614C75.33 226.527 75.4077 226.375 75.4077 226.159V226.114C75.4077 225.553 75.2543 225.117 74.9474 224.807C74.6444 224.496 74.1842 224.341 73.5668 224.341C72.9266 224.341 72.4247 224.481 72.0611 224.761C71.6974 225.042 71.4418 225.341 71.294 225.659L70.0213 225.205C70.2486 224.674 70.5516 224.261 70.9304 223.966C71.313 223.667 71.7296 223.458 72.1804 223.341C72.6349 223.22 73.0819 223.159 73.5213 223.159C73.8016 223.159 74.1236 223.193 74.4872 223.261C74.8546 223.326 75.2088 223.46 75.5497 223.665C75.8944 223.869 76.1804 224.178 76.4077 224.591C76.6349 225.004 76.7486 225.557 76.7486 226.25V232H75.4077V230.818H75.3395C75.2486 231.008 75.0971 231.21 74.8849 231.426C74.6728 231.642 74.3906 231.826 74.0384 231.977C73.6861 232.129 73.2562 232.205 72.7486 232.205ZM72.9531 231C73.4834 231 73.9304 230.896 74.294 230.688C74.6615 230.479 74.938 230.21 75.1236 229.881C75.313 229.551 75.4077 229.205 75.4077 228.841V227.614C75.3509 227.682 75.2259 227.744 75.0327 227.801C74.8433 227.854 74.6236 227.902 74.3736 227.943C74.1274 227.981 73.8868 228.015 73.652 228.045C73.4209 228.072 73.2334 228.095 73.0895 228.114C72.741 228.159 72.4152 228.233 72.1122 228.335C71.813 228.434 71.5705 228.583 71.3849 228.784C71.2031 228.981 71.1122 229.25 71.1122 229.591C71.1122 230.057 71.2846 230.409 71.6293 230.648C71.9777 230.883 72.419 231 72.9531 231ZM80.5369 226.75V232H79.196V223.273H80.4915V224.636H80.6051C80.8097 224.193 81.1203 223.837 81.5369 223.568C81.9536 223.295 82.4915 223.159 83.1506 223.159C83.7415 223.159 84.2585 223.28 84.7017 223.523C85.1449 223.761 85.4896 224.125 85.7358 224.614C85.982 225.098 86.1051 225.712 86.1051 226.455V232H84.7642V226.545C84.7642 225.86 84.5862 225.326 84.2301 224.943C83.8741 224.557 83.3854 224.364 82.7642 224.364C82.3362 224.364 81.9536 224.456 81.6165 224.642C81.2831 224.828 81.0199 225.098 80.8267 225.455C80.6335 225.811 80.5369 226.242 80.5369 226.75ZM90.0384 232L86.8565 220.364H88.2884L90.7202 229.841H90.8338L93.3111 220.364H94.902L97.3793 229.841H97.4929L99.9247 220.364H101.357L98.1747 232H96.7202L94.152 222.727H94.0611L91.4929 232H90.0384ZM102.93 232V223.273H104.271V232H102.93ZM103.612 221.818C103.351 221.818 103.125 221.729 102.936 221.551C102.75 221.373 102.658 221.159 102.658 220.909C102.658 220.659 102.75 220.445 102.936 220.267C103.125 220.089 103.351 220 103.612 220C103.874 220 104.097 220.089 104.283 220.267C104.472 220.445 104.567 220.659 104.567 220.909C104.567 221.159 104.472 221.373 104.283 221.551C104.097 221.729 103.874 221.818 103.612 221.818ZM112.909 225.227L111.705 225.568C111.629 225.367 111.517 225.172 111.369 224.983C111.225 224.79 111.028 224.631 110.778 224.506C110.528 224.381 110.208 224.318 109.818 224.318C109.284 224.318 108.839 224.441 108.483 224.688C108.131 224.93 107.955 225.239 107.955 225.614C107.955 225.947 108.076 226.21 108.318 226.403C108.561 226.597 108.939 226.758 109.455 226.886L110.75 227.205C111.53 227.394 112.112 227.684 112.494 228.074C112.877 228.46 113.068 228.958 113.068 229.568C113.068 230.068 112.924 230.515 112.636 230.909C112.352 231.303 111.955 231.614 111.443 231.841C110.932 232.068 110.337 232.182 109.659 232.182C108.769 232.182 108.032 231.989 107.449 231.602C106.866 231.216 106.496 230.652 106.341 229.909L107.614 229.591C107.735 230.061 107.964 230.413 108.301 230.648C108.642 230.883 109.087 231 109.636 231C110.261 231 110.758 230.867 111.125 230.602C111.496 230.333 111.682 230.011 111.682 229.636C111.682 229.333 111.576 229.08 111.364 228.875C111.152 228.667 110.826 228.511 110.386 228.409L108.932 228.068C108.133 227.879 107.545 227.585 107.17 227.188C106.799 226.786 106.614 226.284 106.614 225.682C106.614 225.189 106.752 224.754 107.028 224.375C107.309 223.996 107.689 223.699 108.17 223.483C108.655 223.267 109.205 223.159 109.818 223.159C110.682 223.159 111.36 223.348 111.852 223.727C112.348 224.106 112.701 224.606 112.909 225.227ZM118.746 232.182C117.905 232.182 117.179 231.996 116.57 231.625C115.964 231.25 115.496 230.727 115.166 230.057C114.84 229.383 114.678 228.598 114.678 227.705C114.678 226.811 114.84 226.023 115.166 225.341C115.496 224.655 115.954 224.121 116.541 223.739C117.132 223.352 117.821 223.159 118.609 223.159C119.064 223.159 119.513 223.235 119.956 223.386C120.399 223.538 120.803 223.784 121.166 224.125C121.53 224.462 121.82 224.909 122.036 225.466C122.251 226.023 122.359 226.708 122.359 227.523V228.091H115.632V226.932H120.996C120.996 226.439 120.897 226 120.7 225.614C120.507 225.227 120.231 224.922 119.871 224.699C119.515 224.475 119.094 224.364 118.609 224.364C118.075 224.364 117.613 224.496 117.223 224.761C116.837 225.023 116.539 225.364 116.331 225.784C116.123 226.205 116.018 226.655 116.018 227.136V227.909C116.018 228.568 116.132 229.127 116.359 229.585C116.59 230.04 116.911 230.386 117.32 230.625C117.729 230.86 118.204 230.977 118.746 230.977C119.098 230.977 119.416 230.928 119.7 230.83C119.988 230.727 120.236 230.576 120.445 230.375C120.653 230.17 120.814 229.917 120.928 229.614L122.223 229.977C122.087 230.417 121.857 230.803 121.536 231.136C121.214 231.466 120.816 231.723 120.342 231.909C119.869 232.091 119.337 232.182 118.746 232.182Z" fill="white"/>
<circle cx="364" cy="29" r="15" fill="#8294A5"/>
<path d="M364.764 24.5455H365.909V31.304C365.909 31.9072 365.798 32.4196 365.577 32.8413C365.355 33.2629 365.043 33.583 364.64 33.8015C364.236 34.02 363.761 34.1293 363.213 34.1293C362.696 34.1293 362.236 34.0354 361.833 33.8477C361.43 33.6568 361.113 33.386 360.882 33.0352C360.651 32.6843 360.536 32.2673 360.536 31.7841H361.662C361.662 32.0518 361.728 32.2857 361.86 32.4858C361.996 32.6828 362.181 32.8366 362.414 32.9474C362.648 33.0582 362.915 33.1136 363.213 33.1136C363.542 33.1136 363.822 33.0444 364.053 32.9059C364.284 32.7674 364.46 32.5643 364.58 32.2965C364.703 32.0257 364.764 31.6948 364.764 31.304V24.5455Z" fill="#1D2025"/>
<path fill-rule="evenodd" clip-rule="evenodd" d="M41.8593 14C43.7834 14 45.5148 14.8884 46.7193 16.3052C47.1151 16.2253 47.5233 16.1835 47.9407 16.1835C50.8068 16.1835 53.2454 18.1549 54.1517 20.9074C57.8785 22.0384 60.6101 25.7271 60.6101 30.1031C60.6101 35.1582 56.9647 39.2962 52.351 39.6336C52.3192 39.6478 52.284 39.6557 52.2469 39.6557H51.7627C51.7556 39.6558 51.7486 39.6558 51.7415 39.6558C51.7344 39.6558 51.7274 39.6558 51.7203 39.6557H23.8898C23.8828 39.6558 23.8757 39.6558 23.8686 39.6558C23.8616 39.6558 23.8545 39.6558 23.8475 39.6557H23.3633C23.3262 39.6557 23.2909 39.6478 23.2591 39.6336C18.6454 39.2962 15 35.1582 15 30.1031C15 24.8273 18.9706 20.5504 23.8686 20.5504C24.5852 20.5504 25.2819 20.642 25.9492 20.8148C27.1372 18.3855 29.5043 16.7293 32.2305 16.7293C33.6084 16.7293 34.8945 17.1524 35.983 17.8845C37.0711 15.5793 39.294 14 41.8593 14Z" fill="white"/>
<g filter="url(#filter0_d_3_2)">
<path d="M47.1165 27.119C48.8152 28.0997 48.8152 30.5516 47.1165 31.5324L35.2598 38.3778C33.5611 39.3586 31.4377 38.1326 31.4377 36.1711L31.4377 22.4802C31.4377 20.5187 33.5611 19.2928 35.2598 20.2735L47.1165 27.119Z" fill="#0000FF"/>
</g>
<g filter="url(#filter1_d_3_2)">
<path d="M44.733 27.0837C46.4317 28.0645 46.4317 30.5163 44.733 31.4971L37.4265 35.7155C35.7278 36.6962 33.6044 35.4703 33.6044 33.5088V25.072C33.6044 23.1105 35.7278 21.8846 37.4265 22.8653L44.733 27.0837Z" fill="#0066FF"/>
</g>
<g filter="url(#filter2_d_3_2)">
<path d="M38.9318 27.3414C40.6173 28.3246 40.6173 30.7601 38.9318 31.7433L33.5362 34.8907C31.8375 35.8816 29.7043 34.6563 29.7043 32.6897V26.3949C29.7043 24.4284 31.8375 23.2031 33.5362 24.194L38.9318 27.3414Z" fill="url(#paint0_linear_3_2)"/>
</g>
<path d="M27.5 89.5L35 83.6667L42.5 89.5V98.6667C42.5 99.1087 42.3244 99.5326 42.0118 99.8452C41.6993 100.158 41.2754 100.333 40.8333 100.333H29.1667C28.7246 100.333 28.3007 100.158 27.9882 99.8452C27.6756 99.5326 27.5 99.1087 27.5 98.6667V89.5Z" stroke="#CCCDCE" stroke-width="1.66667" stroke-linecap="round" stroke-linejoin="round"/>
<path d="M32.5 100.333V92H37.5V100.333" stroke="#CCCDCE" stroke-width="1.66667" stroke-linecap="round" stroke-linejoin="round"/>
<path d="M43.3333 137H26.6667" stroke="#CCCDCE" stroke-width="1.66667" stroke-linecap="round" stroke-linejoin="round"/>
<path d="M29.5417 131.258L26.6667 137V142C26.6667 142.442 26.8423 142.866 27.1548 143.179C27.4674 143.491 27.8913 143.667 28.3333 143.667H41.6667C42.1087 143.667 42.5326 143.491 42.8452 143.179C43.1577 142.866 43.3333 142.442 43.3333 142V137L40.4583 131.258C40.3203 130.981 40.1076 130.747 39.8441 130.584C39.5806 130.42 39.2767 130.333 38.9667 130.333H31.0333C30.7233 130.333 30.4194 130.42 30.1559 130.584C29.8923 130.747 29.6796 130.981 29.5417 131.258Z" stroke="#CCCDCE" stroke-width="1.66667" stroke-linecap="round" stroke-linejoin="round"/>
<path d="M30 140.333H30.0083" stroke="#CCCDCE" stroke-width="1.66667" stroke-linecap="round" stroke-linejoin="round"/>
<path d="M33.3333 140.333H33.3417" stroke="#CCCDCE" stroke-width="1.66667" stroke-linecap="round" stroke-linejoin="round"/>
<g clip-path="url(#clip1_3_2)">
<path d="M37.8667 172.492L35.2167 175.142C34.5667 175.792 34.5667 176.85 35.2167 177.5L36.25 178.533L35.6583 179.125L34.625 178.083C33.975 177.433 32.9167 177.433 32.2667 178.083L31.0833 179.267C30.4333 179.917 30.4333 180.975 31.0833 181.625L32.1167 182.658L31.525 183.25L30.5 182.208C29.85 181.558 28.7917 181.558 28.1417 182.208L25.4917 184.858C24.8417 185.508 24.8417 186.567 25.4917 187.217L28.4417 190.167C29.0917 190.817 30.15 190.817 30.8 190.167L33.45 187.517C34.1 186.867 34.1 185.808 33.45 185.158L32.4167 184.125L33.0083 183.533L34.0417 184.567C34.6917 185.217 35.75 185.217 36.4 184.567L37.575 183.392C38.225 182.742 38.225 181.683 37.575 181.033L36.5333 180L37.125 179.408L38.1583 180.442C38.8083 181.092 39.8667 181.092 40.5167 180.442L43.1667 177.792C43.8167 177.142 43.8167 176.083 43.1667 175.433L40.2167 172.483C39.5667 171.833 38.5167 171.833 37.8667 172.492ZM30.5 188.1L29.6167 188.983L26.6667 186.042L27.55 185.158L30.5 188.1ZM32.2667 186.333L31.3833 187.217L28.4333 184.267L29.3167 183.383L32.2667 186.333ZM40.2167 178.383L39.3333 179.267L36.3833 176.317L37.2667 175.433L40.2167 178.383ZM41.9833 176.617L41.1 177.5L38.15 174.55L39.0417 173.667L41.9833 176.617ZM36.6667 189.5V191.167C38.6558 191.167 40.5635 190.376 41.97 188.97C43.3765 187.563 44.1667 185.656 44.1667 183.667H42.5C42.5 186.892 39.8917 189.5 36.6667 189.5ZM36.6667 186.167V187.833C38.9667 187.833 40.8333 185.967 40.8333 183.667H39.1667C39.1667 185.05 38.05 186.167 36.6667 186.167Z" fill="#CCCDCE"/>
</g>
<path d="M40.625 220.5H28.375C27.4085 220.5 26.625 221.284 26.625 222.25V234.5C26.625 235.466 27.4085 236.25 28.375 236.25H40.625C41.5915 236.25 42.375 235.466 42.375 234.5V222.25C42.375 221.284 41.5915 220.5 40.625 220.5Z" stroke="#CCCDCE" stroke-width="1.75" stroke-linecap="round" stroke-linejoin="round"/>
<path d="M38 218.75V222.25" stroke="#CCCDCE" stroke-width="1.75" stroke-linecap="round" stroke-linejoin="round"/>
<path d="M31 218.75V222.25" stroke="#CCCDCE" stroke-width="1.75" stroke-linecap="round" stroke-linejoin="round"/>
<path d="M26.625 225.75H42.375" stroke="#CCCDCE" stroke-width="1.75" stroke-linecap="round" stroke-linejoin="round"/>
</g>
<defs>
<filter id="filter0_d_3_2" x="29.3993" y="19.9284" width="21.0296" height="23.8907" filterUnits="userSpaceOnUse" color-interpolation-filters="sRGB">
<feFlood flood-opacity="0" result="BackgroundImageFix"/>
<feColorMatrix in="SourceAlpha" type="matrix" values="0 0 0 0 0 0 0 0 0 0 0 0 0 0 0 0 0 0 127 0" result="hardAlpha"/>
<feOffset dy="3.05767"/>
<feGaussianBlur stdDeviation="1.01922"/>
<feComposite in2="hardAlpha" operator="out"/>
<feColorMatrix type="matrix" values="0 0 0 0 0 0 0 0 0 0 0 0 0 0 0 0 0 0 0.25 0"/>
<feBlend mode="normal" in2="BackgroundImageFix" result="effect1_dropShadow_3_2"/>
<feBlend mode="normal" in="SourceGraphic" in2="effect1_dropShadow_3_2" result="shape"/>
</filter>
<filter id="filter1_d_3_2" x="31.566" y="22.5202" width="16.4794" height="18.6366" filterUnits="userSpaceOnUse" color-interpolation-filters="sRGB">
<feFlood flood-opacity="0" result="BackgroundImageFix"/>
<feColorMatrix in="SourceAlpha" type="matrix" values="0 0 0 0 0 0 0 0 0 0 0 0 0 0 0 0 0 0 127 0" result="hardAlpha"/>
<feOffset dy="3.05767"/>
<feGaussianBlur stdDeviation="1.01922"/>
<feComposite in2="hardAlpha" operator="out"/>
<feColorMatrix type="matrix" values="0 0 0 0 0 0 0 0 0 0 0 0 0 0 0 0 0 0 0.25 0"/>
<feBlend mode="normal" in2="BackgroundImageFix" result="effect1_dropShadow_3_2"/>
<feBlend mode="normal" in="SourceGraphic" in2="effect1_dropShadow_3_2" result="shape"/>
</filter>
<filter id="filter2_d_3_2" x="27.6658" y="23.843" width="14.5685" height="16.4947" filterUnits="userSpaceOnUse" color-interpolation-filters="sRGB">
<feFlood flood-opacity="0" result="BackgroundImageFix"/>
<feColorMatrix in="SourceAlpha" type="matrix" values="0 0 0 0 0 0 0 0 0 0 0 0 0 0 0 0 0 0 127 0" result="hardAlpha"/>
<feOffset dy="3.05767"/>
<feGaussianBlur stdDeviation="1.01922"/>
<feComposite in2="hardAlpha" operator="out"/>
<feColorMatrix type="matrix" values="0 0 0 0 0 0 0 0 0 0 0 0 0 0 0 0 0 0 0.25 0"/>
<feBlend mode="normal" in2="BackgroundImageFix" result="effect1_dropShadow_3_2"/>
<feBlend mode="normal" in="SourceGraphic" in2="effect1_dropShadow_3_2" result="shape"/>
</filter>
<linearGradient id="paint0_linear_3_2" x1="29.7043" y1="34.0925" x2="37.2879" y2="16.9751" gradientUnits="userSpaceOnUse">
<stop stop-color="#2AB4D9"/>
<stop offset="1" stop-color="#2AB4D9"/>
</linearGradient>
<clipPath id="clip0_3_2">
<rect width="395" height="406" fill="white"/>
</clipPath>
<clipPath id="clip1_3_2">
<rect width="20" height="20" fill="white" transform="translate(25 172)"/>
</clipPath>
</defs>
</svg>
